<svg xmlns="http://www.w3.org/2000/svg" version="1.1" xmlns:xlink="http://www.w3.org/1999/xlink" xmlns:svgjs="http://svgjs.dev/svgjs" width="1000" height="999" viewBox="0 0 1000 999"><g transform="matrix(1,0,0,1,-0.215743440233382,-0.21552769679306039)"><svg viewBox="0 0 343 343" data-background-color="#ffffff" preserveAspectRatio="xMidYMid meet" height="999" width="1000" xmlns="http://www.w3.org/2000/svg" xmlns:xlink="http://www.w3.org/1999/xlink"><g id="tight-bounds" transform="matrix(1,0,0,1,0.0740000000000407,0.07400000000001228)"><svg viewBox="0 0 342.85155851775386 342.85155851775386" height="342.85155851775386" width="342.85155851775386"><g><svg></svg></g><g><svg viewBox="0 0 342.85155851775386 342.85155851775386" height="342.85155851775386" width="342.85155851775386"><g><path d="M0 171.426c0-94.676 76.75-171.426 171.426-171.426 94.676 0 171.426 76.75 171.426 171.426 0 94.676-76.75 171.426-171.426 171.426-94.676 0-171.426-76.75-171.426-171.426zM171.426 337.809c91.891 0 166.383-74.492 166.383-166.383 0-91.891-74.492-166.383-166.383-166.384-91.891 0-166.383 74.492-166.384 166.384 0 91.891 74.492 166.383 166.384 166.383z" data-fill-palette-color="tertiary" fill="#f5fd00" stroke="transparent"></path><ellipse rx="164.56874808852186" ry="164.56874808852186" cx="171.42577925887693" cy="171.42577925887693" fill="#f5fd00" stroke="transparent" stroke-width="0" fill-opacity="1" data-fill-palette-color="tertiary"></ellipse></g><g transform="matrix(1,0,0,1,64.84655864529837,98.23202936718181)"><svg viewBox="0 0 213.1584412271571 146.38749978339024" height="146.38749978339024" width="213.1584412271571"><g><svg viewBox="0 0 213.1584412271571 146.38749978339024" height="146.38749978339024" width="213.1584412271571"><g><svg viewBox="0 0 213.1584412271571 146.38749978339024" height="146.38749978339024" width="213.1584412271571"><g transform="matrix(1,0,0,1,0,90.47334764136295)"><svg viewBox="0 0 213.1584412271571 55.914152142027284" height="55.914152142027284" width="213.1584412271571"><g id="textblocktransform"><svg viewBox="0 0 213.1584412271571 55.914152142027284" height="55.914152142027284" width="213.1584412271571" id="textblock"><g><svg viewBox="0 0 213.1584412271571 55.914152142027284" height="55.914152142027284" width="213.1584412271571"><g transform="matrix(1,0,0,1,0,0)"><svg width="213.1584412271571" viewBox="3.75 -36.15 140.09 36.75" height="55.914152142027284" data-palette-color="#ff4136"><path d="M3.75 0L3.75-34.3 16.95-34.3Q25.05-34.3 29.45-30.05 33.85-25.8 33.85-17.15L33.85-17.15Q33.85-8.5 29.45-4.25 25.05 0 16.95 0L16.95 0 3.75 0ZM9.3-4.75L16.95-4.75Q22.4-4.75 25.28-7.68 28.15-10.6 28.15-16.85L28.15-16.85 28.15-17.4Q28.15-23.7 25.28-26.63 22.4-29.55 16.95-29.55L16.95-29.55 9.3-29.55 9.3-4.75ZM46.3 0.6Q43.05 0.6 40.42-1 37.8-2.6 37.8-6.8L37.8-6.8Q37.8-11.85 42.2-13.8 46.6-15.75 54.8-15.75L54.8-15.75 54.8-18.35Q54.8-20.5 53.67-21.63 52.55-22.75 49.5-22.75L49.5-22.75Q46.55-22.75 45.32-21.7 44.1-20.65 44.1-19.15L44.1-19.15 44.1-18.5 39.1-18.5Q39.05-18.8 39.05-19.6L39.05-19.6Q39.05-23.05 41.95-24.98 44.85-26.9 49.7-26.9L49.7-26.9Q54.8-26.9 57.37-24.8 59.95-22.7 59.95-18.85L59.95-18.85 59.95-5.4Q59.95-4.5 60.45-4.08 60.95-3.65 61.7-3.65L61.7-3.65 63.5-3.65 63.5-0.2Q62.2 0.45 59.95 0.45L59.95 0.45Q58.15 0.45 56.92-0.53 55.7-1.5 55.3-3.2L55.3-3.2 54.95-3.2Q53.55-1.4 51.37-0.4 49.2 0.6 46.3 0.6L46.3 0.6ZM47.8-3.6Q50.75-3.6 52.77-5.38 54.8-7.15 54.8-10.25L54.8-10.25 54.8-11.85Q49.1-11.85 46.1-10.88 43.1-9.9 43.1-7.2L43.1-7.2Q43.1-5.35 44.27-4.48 45.45-3.6 47.8-3.6L47.8-3.6ZM67.3 0L67.3-26.3 71.45-26.3 71.95-22.8 72.3-22.8Q73.7-24.8 75.92-25.85 78.15-26.9 80.95-26.9L80.95-26.9Q89.3-26.9 89.3-17.85L89.3-17.85 89.3 0 84.15 0 84.15-17.2Q84.15-20.15 82.82-21.33 81.5-22.5 78.95-22.5L78.95-22.5Q77.2-22.5 75.7-21.63 74.2-20.75 73.32-19.15 72.45-17.55 72.45-15.45L72.45-15.45 72.45 0 67.3 0ZM95.94-30.9L95.94-36.15 101.04-36.15 101.04-30.9 95.94-30.9ZM95.94 0L95.94-26.3 101.09-26.3 101.09 0 95.94 0ZM107.89 0L107.89-36.15 113.04-36.15 113.04 0 107.89 0ZM126.64 0.6Q123.39 0.6 120.76-1 118.14-2.6 118.14-6.8L118.14-6.8Q118.14-11.85 122.54-13.8 126.94-15.75 135.14-15.75L135.14-15.75 135.14-18.35Q135.14-20.5 134.01-21.63 132.89-22.75 129.84-22.75L129.84-22.75Q126.89-22.75 125.66-21.7 124.44-20.65 124.44-19.15L124.44-19.15 124.44-18.5 119.44-18.5Q119.39-18.8 119.39-19.6L119.39-19.6Q119.39-23.05 122.29-24.98 125.19-26.9 130.04-26.9L130.04-26.9Q135.14-26.9 137.71-24.8 140.29-22.7 140.29-18.85L140.29-18.85 140.29-5.4Q140.29-4.5 140.79-4.08 141.29-3.65 142.04-3.65L142.04-3.65 143.84-3.65 143.84-0.2Q142.54 0.45 140.29 0.45L140.29 0.45Q138.49 0.45 137.26-0.53 136.04-1.5 135.64-3.2L135.64-3.2 135.29-3.2Q133.89-1.4 131.71-0.4 129.54 0.6 126.64 0.6L126.64 0.6ZM128.14-3.6Q131.09-3.6 133.11-5.38 135.14-7.15 135.14-10.25L135.14-10.25 135.14-11.85Q129.44-11.85 126.44-10.88 123.44-9.9 123.44-7.2L123.44-7.2Q123.44-5.35 124.61-4.48 125.79-3.6 128.14-3.6L128.14-3.6Z" opacity="1" transform="matrix(1,0,0,1,0,0)" fill="#ff4136" class="undefined-text-0" data-fill-palette-color="quaternary" id="text-0"></path></svg></g></svg></g></svg></g></svg></g><g transform="matrix(1,0,0,1,67.94254148343771,0)"><svg viewBox="0 0 77.27335826028171 77.27335826028171" height="77.27335826028171" width="77.27335826028171"><g><svg xmlns="http://www.w3.org/2000/svg" xmlns:xlink="http://www.w3.org/1999/xlink" version="1.1" x="0" y="0" viewBox="1 1 126 126" style="enable-background:new 0 0 128 128;" xml:space="preserve" height="77.27335826028171" width="77.27335826028171" class="icon-icon-0" data-fill-palette-color="quaternary" id="icon-0"><g fill="#ff4136" data-fill-palette-color="quaternary"><path d="M110.937 52.703c-7.691-4.44-16.653-5.62-25.231-3.321-8.267 2.215-15.218 7.411-19.687 14.668 9.403 17.409 3.288 39.323-13.954 49.278-5.771 3.331-12.084 4.915-18.313 4.915-0.632 0-1.264-0.028-1.894-0.062C41.271 123.777 52.257 127 64 127c31.814 0 58.104-23.586 62.378-54.223C124.154 64.602 118.837 57.265 110.937 52.703z" fill="#ff4136" data-fill-palette-color="quaternary"></path><path d="M64 1c-8.339 0-16.291 1.635-23.575 4.577C34.448 11.591 30.749 19.872 30.749 29c0 18.01 14.396 32.711 32.285 33.226 4.938-8.026 12.624-13.774 21.766-16.224 9.482-2.54 19.386-1.237 27.887 3.671 6.348 3.666 11.181 8.957 14.295 15.043C126.983 64.476 127 64.24 127 64 127 29.206 98.795 1 64 1z" fill="#ff4136" data-fill-palette-color="quaternary"></path><path d="M50.314 110.297c15.598-9.006 21.13-28.825 12.632-44.574C43.168 65.162 27.249 48.91 27.249 29c0-7.337 2.17-14.175 5.891-19.918C13.961 19.882 1 40.421 1 64c0 20.167 9.486 38.105 24.228 49.636C33.414 115.793 42.419 114.854 50.314 110.297z" fill="#ff4136" data-fill-palette-color="quaternary"></path></g></svg></g></svg></g><g></g></svg></g></svg></g></svg></g></svg></g><defs></defs></svg><rect width="342.85155851775386" height="342.85155851775386" fill="none" stroke="none" visibility="hidden"></rect></g></svg></g></svg>